<svg width="48" height="48" viewBox="0 0 48 48" fill="none" xmlns="http://www.w3.org/2000/svg">
<rect width="48" height="48" fill="white"/>
<path d="M38.1919 33.7204V19.6801H35.3839V17.8081H36.3199V16.872H37.2559V15.936H38.1919V15H41V33.7204H38.1919Z" fill="black"/>
<path d="M20.5972 33.7204V30.9123H21.5332V29.9763H22.4692V29.0403H23.4052V28.1043H24.3412V27.1683H25.2773V26.2322H26.2133V25.2962H27.1493V24.3602H28.0853V23.4242H29.0214V22.4882H29.9574V18.7441H29.0214V17.8081H25.2773V18.7441H24.3412V19.6801H23.4052V21.5521H20.5972V19.6801H21.5332V17.8081H22.4692V16.872H23.4052V15.936H24.3412V15H29.9574V15.936H30.8934V16.872H31.8294V17.8081H32.7654V23.4242H31.8294V24.3602H30.8934V25.2962H29.9574V26.2322H29.0214V27.1683H28.0853V28.1043H27.1493V29.0403H26.2133V29.9763H25.2773V30.9123H33.7015V33.7204H20.5972Z" fill="black"/>
<path d="M7 33.7203V19.68H9.80806V21.5521H10.7441V20.616H11.6801V19.68H14.4882V20.616H16.3602V21.5521H17.2962V23.4241H18.2322V33.7203H15.4242V23.4241H14.4882V22.4881H11.6801V23.4241H10.7441V24.3601H9.80806V33.7203H7Z" fill="black"/>
</svg>
