<svg width="100" height="25" viewBox="0 0 100 25" fill="none" xmlns="http://www.w3.org/2000/svg">
<path d="M96.3486 24.3424V6.08559H92.6973V3.65135H93.9144V2.43424H95.1315V1.21712H96.3486V0H100V24.3424H96.3486Z" fill="black"/>
<path d="M73.47 24.3424V20.691H74.6871V19.4739H75.9042V18.2568H77.1213V17.0397H78.3384V15.8225H79.5556V14.6054H80.7727V13.3883H81.9898V12.1712H83.2069V10.9541H84.424V9.73694H85.6412V4.86847H84.424V3.65135H79.5556V4.86847H78.3384V6.08559H77.1213V8.51983H73.47V6.08559H74.6871V3.65135H75.9042V2.43424H77.1213V1.21712H78.3384V0H85.6412V1.21712H86.8583V2.43424H88.0754V3.65135H89.2925V10.9541H88.0754V12.1712H86.8583V13.3883H85.6412V14.6054H84.424V15.8225H83.2069V17.0397H81.9898V18.2568H80.7727V19.4739H79.5556V20.691H90.5096V24.3424H73.47Z" fill="black"/>
<path d="M67.0983 13.3882V10.954H65.8812V9.73684H61.0127V10.954H59.7956V13.3882H67.0983ZM61.0127 24.3423V23.1251H58.5785V21.908H57.3613V19.4738H56.1442V10.954H57.3613V8.51972H58.5785V7.30261H61.0127V6.08549H65.8812V7.30261H68.3154V8.51972H69.5325V10.954H70.7496V15.8224H59.7956V19.4738H61.0127V20.6909H65.8812V19.4738H67.0983V18.2567H70.7496V20.6909H69.5325V21.908H68.3154V23.1251H65.8812V24.3423H61.0127Z" fill="black"/>
<path d="M48.0231 20.691V19.4739H49.2402V18.2568H50.4573V12.1712H49.2402V10.9541H48.0231V9.73694H43.1546V10.9541H41.9375V19.4739H43.1546V20.691H48.0231ZM43.1546 24.3424V23.1252H40.7204V21.9081H39.5032V19.4739H38.2861V10.9541H39.5032V8.51983H40.7204V7.30271H43.1546V6.08559H48.0231V7.30271H49.2402V8.51983H50.4573V0H54.1087V24.3424H50.4573V21.9081H49.2402V23.1252H48.0231V24.3424H43.1546Z" fill="black"/>
<path d="M29.7085 20.691V19.4739H30.9256V15.8225H32.1427V8.51983H30.9256V4.86847H29.7085V3.65135H23.6229V4.86847H22.4058V8.51983H21.1886V15.8225H22.4058V19.4739H23.6229V20.691H29.7085ZM22.4058 24.3424V23.1252H19.9715V20.691H18.7544V17.0397H17.5373V7.30271H18.7544V3.65135H19.9715V1.21712H22.4058V0H30.9256V1.21712H33.3598V3.65135H34.5769V7.30271H35.7941V17.0397H34.5769V20.691H33.3598V23.1252H30.9256V24.3424H22.4058Z" fill="black"/>
<path d="M0.0975342 24.3423V6.08549H3.74889V8.51972H4.96601V7.30261H6.18312V6.08549H9.83448V7.30261H12.2687V8.51972H13.4858V10.954H14.7029V24.3423H11.0516V10.954H9.83448V9.73684H6.18312V10.954H4.96601V12.1711H3.74889V24.3423H0.0975342Z" fill="black"/>
</svg>
